# xmcd
#
# Track frame offsets: 
#        180
#        11367
#        23636
#        38679
#        50196
#        61017
#        70439
#        85021
#        102213
#        116714
#        129965
#        139600
#        150400
#        161963
#
# Disc length: 2345 seconds
#
# Revision: 2
# Processed by: cddbd v1.5.2PL0 Copyright (c) Steve Scherf et al.
# Submitted via: ExactAudioCopyFreeDBPlugin 1.0
#
DISCID=ad09270e
DTITLE=Various Artist - Collectables Presents A Rhythm and Blues Christ
DTITLE=mas, Volume 1
DYEAR=1994
DGENRE=Holiday
TTITLE0=The Moonglows - Just a Lonely Christmas
TTITLE1=Chuck Berry - Run Rudolph Run
TTITLE2=The Orioles - (It's Gonna Be a) Lonely Christmas
TTITLE3=Baby Washington - White Christmas
TTITLE4=The Moonglows - Hey Santa Claus
TTITLE5=Lee Andrews and The Hearts - The Bells of St. Mary
TTITLE6=Chuck Berry - Merry Christmas Baby
TTITLE7=Lightnin' Hopkins - Santa
TTITLE8=Baby Washington - Silent Night
TTITLE9=The Orioles - What Are You Doing New Year's Eve
TTITLE10=Patti Labelle and The Bluebelles - Winter Wonderland
TTITLE11=Frankie Lymon - It's Christmas Once Again
TTITLE12=J.B. Summers - I Want a Present for Christmas
TTITLE13=The Manhattans - Alone on New Year's Eve
EXTD=
EXTT0=
EXTT1=
EXTT2=
EXTT3=
EXTT4=
EXTT5=
EXTT6=
EXTT7=
EXTT8=
EXTT9=
EXTT10=
EXTT11=
EXTT12=
EXTT13=
PLAYORDER=
